<svg xmlns="http://www.w3.org/2000/svg" width="838.401" height="233.048" viewBox="0 0 838.401 233.048">
  <g id="AntiCov_Logo_Dark" data-name="AntiCov Logo Dark" transform="translate(1400 -2397)">
    <g id="Group_28" data-name="Group 28" transform="translate(-1400 2397)">
      <path id="Path_729" data-name="Path 729" d="M1240.776,1498.492a14.786,14.786,0,0,0-17.964,3.672l-10.727-5.413a85.634,85.634,0,0,0,5.96-24.056l5.888,1.364a7.844,7.844,0,1,0,.817-3.523l-6.427-1.486a85.911,85.911,0,0,0-4.117-31.395l11.923-3.564a13.11,13.11,0,1,0-1.729-5.785l-12.28,3.662a85.438,85.438,0,0,0-7.443-14.228l3.523-2.256a5.511,5.511,0,1,0-1.366-2.149l-3.573,2.289a85.73,85.73,0,0,0-12.316-14.124l6.377-7.213a7.836,7.836,0,1,0-2.711-2.4l-6.377,7.212a85.073,85.073,0,0,0-27.244-15.579l2.264-9.327a13.12,13.12,0,1,0-5.876-1.428l-2.188,8.979a85.691,85.691,0,0,0-27.94-2.742l-1.567-7.7a7.834,7.834,0,1,0-3.539.72l1.483,7.292a85.374,85.374,0,0,0-29.1,8.615l-5.283-10.849a13.108,13.108,0,1,0-5.438,2.653l5.418,11.1a85.212,85.212,0,0,0-20.317,16.823c-.169.2-.331.414-.515.628l-6.6-5.849a7.844,7.844,0,1,0-2.4,2.712l6.677,5.906a85.059,85.059,0,0,0-14.436,26.874l-12.242-2.757a13.112,13.112,0,1,0-1.328,5.9l11.914,2.68a85.855,85.855,0,0,0-2.03,29.622l-4.116.093a7.814,7.814,0,1,0,.1,3.621l4.482-.11a85.863,85.863,0,0,0,8.14,25.7l-7.59,3.19a13.105,13.105,0,1,0,2.345,5.572l8.16-3.436a85.13,85.13,0,0,0,15.526,19.124l-5.464,6.17a7.842,7.842,0,1,0,2.715,2.4l5.461-6.18a85.077,85.077,0,0,0,20.2,12.8l-3.412,11.245a13.111,13.111,0,1,0,5.777,1.756l3.262-10.729a85.854,85.854,0,0,0,22.7,4.962l.1,5.665a7.848,7.848,0,1,0,3.608-.054l-.084-5.406a85.84,85.84,0,0,0,29.33-4.059l4.455,11.438a13.107,13.107,0,1,0,5.633-2.191l-4.409-11.315a84.165,84.165,0,0,0,16.508-8.808l3.485,5.8a7.839,7.839,0,1,0,3.093-1.872l-3.639-6.036a84.857,84.857,0,0,0,9.263-8.1l8.184,6.593a10.422,10.422,0,1,0,3.012-3.747l-7.878-6.359a1.284,1.284,0,0,1,.134-.145,85.434,85.434,0,0,0,12.242-17.992l10.47,5.287a14.794,14.794,0,1,0,21.052-9.767Zm-179.976-57.76a2.642,2.642,0,1,1,.231,3.725A2.656,2.656,0,0,1,1060.8,1440.732Zm9.48,29.781a4.982,4.982,0,1,1-.431-7.029A4.99,4.99,0,0,1,1070.28,1470.512Zm117.5-45.86a4.987,4.987,0,1,1,.443,7.042A5.009,5.009,0,0,1,1187.782,1424.652Zm-71.539-33.59a2.639,2.639,0,1,1,.223,3.723A2.644,2.644,0,0,1,1116.243,1391.062Zm.17,22.323a4.985,4.985,0,1,1,.431,7.036A4.98,4.98,0,0,1,1116.413,1413.385Zm-39.871,11.4a7.4,7.4,0,1,1,10.443-.64A7.388,7.388,0,0,1,1076.543,1424.78Zm14.439,78.967a7.4,7.4,0,1,1-.646-10.444A7.4,7.4,0,0,1,1090.982,1503.747Zm2.062-43.6a15.176,15.176,0,1,1,21.425-1.314A15.18,15.18,0,0,1,1093.043,1460.152Zm10.107,21.553a2.64,2.64,0,1,1,.223,3.727A2.638,2.638,0,0,1,1103.151,1481.706Zm26.247,46.147a15.176,15.176,0,1,1-1.318-21.422A15.192,15.192,0,0,1,1129.4,1527.852Zm7.27,16.316a2.638,2.638,0,1,1-.219-3.726A2.631,2.631,0,0,1,1136.667,1544.168Zm-8.221-63.59a7.4,7.4,0,1,1,10.448-.64A7.4,7.4,0,0,1,1128.446,1480.578Zm16.532,21.9a2.64,2.64,0,1,1-.235-3.727A2.643,2.643,0,0,1,1144.978,1502.476Zm.546-98.173a15.177,15.177,0,1,1,1.31,21.418A15.164,15.164,0,0,1,1145.524,1404.3Zm2.369,47.113a2.643,2.643,0,1,1,3.732-.226A2.644,2.644,0,0,1,1147.893,1451.416Zm17.093,75.11a7.4,7.4,0,1,1-.639-10.44A7.4,7.4,0,0,1,1164.985,1526.526Zm13.524-31.3a15.174,15.174,0,1,1-1.313-21.416A15.169,15.169,0,0,1,1178.51,1495.222Zm.516-35.227a7.4,7.4,0,1,1,10.448-.632A7.393,7.393,0,0,1,1179.026,1459.995Zm20.3,42.757a4.98,4.98,0,1,1-.426-7.034A4.991,4.991,0,0,1,1199.323,1502.751Z" transform="translate(-1013.168 -1347.983)" fill="#33c8eb"/>
    </g>
    <g id="Group_31" data-name="Group 31">
      <path id="Path_733" data-name="Path 733" d="M108.15,152H87.9L77.55,125.45H30.75L20.25,152H.6L45.15,43.4h18.6ZM36.9,109.85H71.4L65.1,93.5q-2.85-7.35-5.55-14.55T54.3,64.4H54Q48.75,79.25,43.2,93.5ZM119.4,78.2h18v7.95l.3.15a41.337,41.337,0,0,1,10.8-6.975A32.443,32.443,0,0,1,162,76.55a30.227,30.227,0,0,1,11.025,1.95,21.524,21.524,0,0,1,8.475,5.85,20.53,20.53,0,0,1,4.8,8.475,47.784,47.784,0,0,1,1.5,13.275V152H169.65V109.25a36.486,36.486,0,0,0-.675-7.875,10.251,10.251,0,0,0-2.325-4.725q-3.45-4.05-9.75-4.05a23.061,23.061,0,0,0-10.65,2.7,29.4,29.4,0,0,0-8.7,6.6V152H119.4Zm134.1,72a24.344,24.344,0,0,1-6.6,2.475,35.767,35.767,0,0,1-8.4.975,30.036,30.036,0,0,1-9.675-1.65,19.132,19.132,0,0,1-8.325-5.55,20.258,20.258,0,0,1-4.425-7.95,44.84,44.84,0,0,1-1.575-13.2V93.65H201.6V78.2h12.9V58.55l18.15-3.15V78.2H253.5V93.65H232.65v29.1a42.627,42.627,0,0,0,.375,5.85,15.407,15.407,0,0,0,1.425,4.8,8.157,8.157,0,0,0,2.925,3.3,9.227,9.227,0,0,0,5.025,1.2,18.626,18.626,0,0,0,5.925-.975,33.58,33.58,0,0,0,5.175-2.175Zm15.3-72h18.15V152H268.8Zm-2.25-24.45a10.836,10.836,0,0,1,3.3-7.95,11.012,11.012,0,0,1,8.1-3.3A11.267,11.267,0,0,1,289.2,53.75a10.836,10.836,0,0,1-3.3,7.95,11.012,11.012,0,0,1-8.1,3.3,11.267,11.267,0,0,1-11.25-11.25Z" transform="translate(-1129.499 2415.5)" fill="#08274d"/>
      <path id="Path_734" data-name="Path 734" d="M393.15,145.85a55.023,55.023,0,0,1-15.075,5.85,73.107,73.107,0,0,1-16.725,1.95,62.263,62.263,0,0,1-23.4-4.275,56.627,56.627,0,0,1-18.375-11.7,52.054,52.054,0,0,1-12-17.625A56.464,56.464,0,0,1,303.3,98a57.511,57.511,0,0,1,4.2-21.975,53.094,53.094,0,0,1,11.85-17.85,56.472,56.472,0,0,1,18.3-12A60.8,60.8,0,0,1,361.2,41.75a68.135,68.135,0,0,1,16.125,1.875A59.838,59.838,0,0,1,391.5,48.95v19.8a52.439,52.439,0,0,0-13.875-7.05A50.29,50.29,0,0,0,361.2,59a41.46,41.46,0,0,0-15.75,2.925,36.112,36.112,0,0,0-12.3,8.1,36.739,36.739,0,0,0-7.95,12.3A41.015,41.015,0,0,0,322.35,97.7a40.038,40.038,0,0,0,2.85,15.15,36.339,36.339,0,0,0,8.025,12.225,37.353,37.353,0,0,0,12.6,8.175,43.465,43.465,0,0,0,16.425,3,48.857,48.857,0,0,0,16.5-2.775,54.065,54.065,0,0,0,14.4-7.725Zm29.7-30.75a23.81,23.81,0,0,0,1.65,8.925,22.4,22.4,0,0,0,4.575,7.2,20.9,20.9,0,0,0,6.9,4.8,22.991,22.991,0,0,0,17.475,0,20.7,20.7,0,0,0,6.975-4.8,22.4,22.4,0,0,0,4.575-7.2,24.963,24.963,0,0,0,0-17.85,22.4,22.4,0,0,0-4.575-7.2,20.7,20.7,0,0,0-6.975-4.8,22.991,22.991,0,0,0-17.475,0,20.9,20.9,0,0,0-6.9,4.8,22.4,22.4,0,0,0-4.575,7.2A23.81,23.81,0,0,0,422.85,115.1Zm-18.15,0a38.285,38.285,0,0,1,3-15.15,36.566,36.566,0,0,1,8.4-12.225,40.129,40.129,0,0,1,12.75-8.175,43.635,43.635,0,0,1,31.8,0,40.129,40.129,0,0,1,12.75,8.175,36.566,36.566,0,0,1,8.4,12.225,39.753,39.753,0,0,1,0,30.3,36.566,36.566,0,0,1-8.4,12.225,40.128,40.128,0,0,1-12.75,8.175,43.635,43.635,0,0,1-31.8,0,40.128,40.128,0,0,1-12.75-8.175,36.566,36.566,0,0,1-8.4-12.225A38.285,38.285,0,0,1,404.7,115.1Zm84.6-36.9h19.2l10.5,27q2.4,6.15,4.725,12.3t4.725,12.75h.3q2.55-6.6,4.875-12.525T538.5,105.35L549.45,78.2H567.9L537.6,152H519.75Z" transform="translate(-1129.499 2416.25)" fill="#33c8eb"/>
    </g>
  </g>
</svg>
